<svg width="128" height="135" viewBox="0 0 128 135" fill="none" xmlns="http://www.w3.org/2000/svg">
<path d="M70.3001 109.7C98.3001 109.7 121 87.0001 121 58.9001C121 30.8001 98.2001 8.1001 70.3001 8.1001C42.3001 8.1001 19.6001 30.8001 19.6001 58.9001C19.6001 87.0001 42.3001 109.7 70.3001 109.7Z" fill="#EAEEF9"/>
<path d="M117.7 25.5999C119.964 25.5999 121.8 23.7643 121.8 21.4999C121.8 19.2355 119.964 17.3999 117.7 17.3999C115.436 17.3999 113.6 19.2355 113.6 21.4999C113.6 23.7643 115.436 25.5999 117.7 25.5999Z" fill="#EAEEF9"/>
<path d="M123.7 9.6C125.246 9.6 126.5 8.3464 126.5 6.8C126.5 5.2536 125.246 4 123.7 4C122.154 4 120.9 5.2536 120.9 6.8C120.9 8.3464 122.154 9.6 123.7 9.6Z" fill="#EAEEF9"/>
<path d="M22.3 25.4999C23.8464 25.4999 25.1 24.2463 25.1 22.6999C25.1 21.1535 23.8464 19.8999 22.3 19.8999C20.7536 19.8999 19.5 21.1535 19.5 22.6999C19.5 24.2463 20.7536 25.4999 22.3 25.4999Z" fill="#EAEEF9"/>
<path d="M5.2 79.5001C8.07188 79.5001 10.4 77.172 10.4 74.3001C10.4 71.4282 8.07188 69.1001 5.2 69.1001C2.32812 69.1001 0 71.4282 0 74.3001C0 77.172 2.32812 79.5001 5.2 79.5001Z" fill="#EAEEF9"/>
<g filter="url(#filter0_d_34_30)">
<path d="M104.8 33.5L105.6 97.9C105.6 100.1 103.8 101.8 101.6 101.8H38.8C36.6 101.8 34.8 100 34.8 97.9V15.1C34.8 12.9 36.6 11.2 38.8 11.2H84.3001L104.8 33.5Z" fill="url(#paint0_linear_34_30)"/>
</g>
<path d="M66.2726 79.2734H64.7172C64.6888 79.0722 64.6308 78.8935 64.5432 78.7372C64.4556 78.5786 64.3432 78.4437 64.2059 78.3324C64.0686 78.2211 63.9099 78.1359 63.73 78.0767C63.5525 78.0175 63.3595 77.9879 63.1512 77.9879C62.7748 77.9879 62.4469 78.0814 62.1675 78.2685C61.8882 78.4531 61.6715 78.723 61.5177 79.0781C61.3638 79.4309 61.2868 79.8594 61.2868 80.3636C61.2868 80.8821 61.3638 81.3177 61.5177 81.6705C61.6739 82.0232 61.8917 82.2895 62.1711 82.4695C62.4504 82.6494 62.7736 82.7393 63.1405 82.7393C63.3465 82.7393 63.5371 82.7121 63.7123 82.6577C63.8898 82.6032 64.0473 82.5239 64.1846 82.4197C64.3219 82.3132 64.4355 82.1842 64.5255 82.0327C64.6178 81.8812 64.6817 81.7083 64.7172 81.5142L66.2726 81.5213C66.2324 81.8551 66.1318 82.1771 65.9708 82.4872C65.8122 82.795 65.5979 83.0708 65.328 83.3146C65.0605 83.5561 64.7409 83.7479 64.3692 83.8899C63.9999 84.0296 63.5821 84.0994 63.1157 84.0994C62.467 84.0994 61.887 83.9527 61.3756 83.6591C60.8666 83.3655 60.4642 82.9406 60.1682 82.3842C59.8747 81.8279 59.7279 81.1544 59.7279 80.3636C59.7279 79.5705 59.877 78.8958 60.1753 78.3395C60.4736 77.7831 60.8785 77.3594 61.3898 77.0682C61.9012 76.7746 62.4765 76.6278 63.1157 76.6278C63.5371 76.6278 63.9277 76.687 64.2876 76.8054C64.6498 76.9238 64.9706 77.0966 65.2499 77.3239C65.5293 77.5488 65.7565 77.8246 65.9317 78.1513C66.1093 78.478 66.2229 78.852 66.2726 79.2734ZM71.3206 78.8189C71.2922 78.5324 71.1702 78.3099 70.9548 78.1513C70.7394 77.9927 70.447 77.9134 70.0777 77.9134C69.8267 77.9134 69.6148 77.9489 69.442 78.0199C69.2692 78.0885 69.1366 78.1844 69.0443 78.3075C68.9543 78.4306 68.9094 78.5703 68.9094 78.7266C68.9046 78.8568 68.9318 78.9704 68.991 79.0675C69.0526 79.1645 69.1366 79.2486 69.2432 79.3196C69.3497 79.3883 69.4728 79.4486 69.6125 79.5007C69.7522 79.5504 69.9013 79.593 70.0599 79.6286L70.7133 79.7848C71.0306 79.8558 71.3218 79.9505 71.5869 80.0689C71.8521 80.1873 72.0817 80.3329 72.2758 80.5057C72.47 80.6785 72.6203 80.8821 72.7268 81.1165C72.8357 81.3509 72.8914 81.6196 72.8937 81.9226C72.8914 82.3677 72.7777 82.7536 72.5528 83.0803C72.3303 83.4046 72.0083 83.6567 71.5869 83.8366C71.1679 84.0142 70.6624 84.103 70.0706 84.103C69.4835 84.103 68.9721 84.013 68.5365 83.8331C68.1032 83.6532 67.7647 83.3868 67.5209 83.0341C67.2794 82.679 67.1527 82.2398 67.1409 81.7166H68.6288C68.6454 81.9605 68.7152 82.1641 68.8383 82.3274C68.9638 82.4884 69.1307 82.6103 69.339 82.6932C69.5497 82.7737 69.7877 82.8139 70.0528 82.8139C70.3132 82.8139 70.5393 82.776 70.7311 82.7003C70.9252 82.6245 71.0756 82.5192 71.1821 82.3842C71.2886 82.2493 71.3419 82.0942 71.3419 81.919C71.3419 81.7557 71.2934 81.6184 71.1963 81.5071C71.1016 81.3958 70.9619 81.3011 70.7773 81.223C70.595 81.1449 70.3712 81.0739 70.1061 81.0099L69.3142 80.8111C68.701 80.6619 68.2169 80.4287 67.8618 80.1115C67.5067 79.7943 67.3303 79.367 67.3327 78.8295C67.3303 78.3892 67.4475 78.0045 67.6842 77.6754C67.9233 77.3464 68.2512 77.0895 68.6679 76.9048C69.0845 76.7202 69.558 76.6278 70.0883 76.6278C70.6281 76.6278 71.0992 76.7202 71.5017 76.9048C71.9065 77.0895 72.2214 77.3464 72.4463 77.6754C72.6712 78.0045 72.7872 78.3857 72.7943 78.8189H71.3206ZM75.2419 76.7273L76.9997 82.2528H77.0672L78.8286 76.7273H80.5331L78.026 84H76.0445L73.5338 76.7273H75.2419Z" fill="#7E879F"/>
<path d="M85.0106 108.328C84.7006 109.646 84.2354 111.041 83.6928 112.204C82.2199 115.072 79.8943 117.32 77.0261 118.793C74.0803 120.266 70.5919 120.886 67.1035 120.111C58.8864 118.405 53.615 110.343 55.3204 102.126C57.0259 93.9091 65.0105 88.5602 73.2276 90.3431C76.1733 90.9633 78.7315 92.4362 80.9021 94.4517C84.5455 98.0951 86.0959 103.367 85.0106 108.328Z" fill="url(#paint1_linear_34_30)"/>
<path d="M75.0107 103.909H71.5223V100.421C71.5223 99.7229 70.9796 99.1028 70.2044 99.1028C69.5067 99.1028 68.8866 99.6454 68.8866 100.421V103.909H65.3982C64.7005 103.909 64.0803 104.452 64.0803 105.227C64.0803 106.002 64.623 106.545 65.3982 106.545H68.8866V110.033C68.8866 110.731 69.4292 111.351 70.2044 111.351C70.9021 111.351 71.5223 110.808 71.5223 110.033V106.545H75.0107C75.7083 106.545 76.3285 106.002 76.3285 105.227C76.3285 104.452 75.7083 103.909 75.0107 103.909Z" fill="white"/>
<path d="M84.3 11.2V29C84.3 31.5 86.5 33.5 89 33.5H104.8" fill="#D5DDEA"/>
<path d="M92.1145 39.0212H77.5368C77.4785 39.0212 77.4785 39.0212 77.4202 39.0212C77.3619 39.0212 77.3619 39.0212 77.3036 39.0212H62.2595C62.2011 39.0212 62.2011 39.0212 62.1428 39.0212C62.0845 39.0212 62.0845 39.0212 62.0262 39.0212H47.8567C46.2823 39.0212 44.9995 40.3451 44.9995 41.8992V67.1102C44.9995 68.7219 46.2823 69.9882 47.8567 69.9882H92.1145C93.6889 69.9882 94.9717 68.7219 94.9717 67.1102V41.8992C94.9717 40.3451 93.6889 39.0212 92.1145 39.0212ZM63.0175 61.3543V55.7134H76.5456V61.3543H63.0175ZM76.5456 63.081V68.3189H63.0175V63.081H76.5456ZM76.5456 48.2883V53.9867H63.0175V48.3459H76.5456V48.2883ZM63.0175 46.5615V40.748H76.5456V46.5615H63.0175ZM93.2224 53.9867H78.2949V48.3459H93.2224V53.9867ZM61.2682 53.9867H46.7488V48.3459H61.2682V53.9867ZM46.7488 55.7134H61.2682V61.3543H46.7488V55.7134ZM78.2949 55.7134H93.2224V61.3543H78.2949V55.7134ZM93.2224 41.8992V46.5615H78.2949V40.748H92.1145C92.7559 40.748 93.2224 41.2661 93.2224 41.8992ZM47.8567 40.748H61.2682V46.5615H46.7488V41.8992C46.7488 41.2661 47.2153 40.748 47.8567 40.748ZM46.7488 67.1678V63.081H61.2682V68.3189H47.8567C47.2736 68.3189 46.7488 67.8009 46.7488 67.1678ZM92.1145 68.3189H78.2949V63.081H93.2224V67.1678C93.2224 67.8009 92.6976 68.3189 92.1145 68.3189Z" fill="#C6D0DE"/>
<defs>
<filter id="filter0_d_34_30" x="12.8" y="0.199951" width="114.8" height="134.6" filterUnits="userSpaceOnUse" color-interpolation-filters="sRGB">
<feFlood flood-opacity="0" result="BackgroundImageFix"/>
<feColorMatrix in="SourceAlpha" type="matrix" values="0 0 0 0 0 0 0 0 0 0 0 0 0 0 0 0 0 0 127 0" result="hardAlpha"/>
<feOffset dy="11"/>
<feGaussianBlur stdDeviation="11"/>
<feColorMatrix type="matrix" values="0 0 0 0 0.397708 0 0 0 0 0.47749 0 0 0 0 0.575 0 0 0 0.27 0"/>
<feBlend mode="normal" in2="BackgroundImageFix" result="effect1_dropShadow_34_30"/>
<feBlend mode="normal" in="SourceGraphic" in2="effect1_dropShadow_34_30" result="shape"/>
</filter>
<linearGradient id="paint0_linear_34_30" x1="70.177" y1="9.10429" x2="70.177" y2="102.777" gradientUnits="userSpaceOnUse">
<stop stop-color="#FDFEFF"/>
<stop offset="0.9964" stop-color="#ECF0F5"/>
</linearGradient>
<linearGradient id="paint1_linear_34_30" x1="54.9861" y1="105.227" x2="85.3562" y2="105.227" gradientUnits="userSpaceOnUse">
<stop stop-color="#B0BACC"/>
<stop offset="1" stop-color="#969EAE"/>
</linearGradient>
</defs>
</svg>
