<svg width="177" height="177" viewBox="0 0 177 177" fill="none" xmlns="http://www.w3.org/2000/svg">
<path d="M88.5513 138.881C116.551 138.881 139.251 116.181 139.251 88.0808C139.251 59.9808 116.451 37.2808 88.5513 37.2808C60.5513 37.2808 37.8513 59.9808 37.8513 88.0808C37.8513 116.181 60.5513 138.881 88.5513 138.881Z" fill="#EAEEF9"/>
<path d="M135.951 54.7806C138.216 54.7806 140.051 52.9449 140.051 50.6806C140.051 48.4162 138.216 46.5806 135.951 46.5806C133.687 46.5806 131.851 48.4162 131.851 50.6806C131.851 52.9449 133.687 54.7806 135.951 54.7806Z" fill="#E7EBF6"/>
<path d="M141.951 38.7807C143.498 38.7807 144.751 37.5271 144.751 35.9807C144.751 34.4343 143.498 33.1807 141.951 33.1807C140.405 33.1807 139.151 34.4343 139.151 35.9807C139.151 37.5271 140.405 38.7807 141.951 38.7807Z" fill="#E7EBF6"/>
<path d="M40.5513 54.6806C42.0977 54.6806 43.3513 53.427 43.3513 51.8806C43.3513 50.3342 42.0977 49.0806 40.5513 49.0806C39.0049 49.0806 37.7513 50.3342 37.7513 51.8806C37.7513 53.427 39.0049 54.6806 40.5513 54.6806Z" fill="#E7EBF6"/>
<path d="M23.4513 108.681C26.3232 108.681 28.6513 106.353 28.6513 103.481C28.6513 100.609 26.3232 98.2808 23.4513 98.2808C20.5795 98.2808 18.2513 100.609 18.2513 103.481C18.2513 106.353 20.5795 108.681 23.4513 108.681Z" fill="#E7EBF6"/>
<g filter="url(#filter0_d_30_1063)">
<path d="M122.784 127.722L55.1479 128.208C51.2438 128.225 48.0604 125.078 48.0081 121.199L47.4839 56.4883C47.4621 52.5836 50.6052 49.4031 54.483 49.3552L122.119 48.8699C126.023 48.8525 129.207 51.9997 129.259 55.8783L129.783 120.589C129.805 124.494 126.662 127.674 122.784 127.722Z" fill="url(#paint0_linear_30_1063)"/>
</g>
<path d="M118.975 118.061L59.5178 118.511C57.8359 118.526 56.4822 117.198 56.4654 115.516L56.0143 62.0352C55.9975 60.353 57.3234 59.0006 59.0052 58.9856L118.463 58.5356C120.145 58.5207 121.498 59.8484 121.515 61.5305L121.966 115.011C121.983 116.693 120.657 118.046 118.975 118.061Z" fill="#EAEEF9"/>
<path d="M90.2209 97.989L68.531 98.1397L79.283 85.7641L90.2209 97.989Z" fill="#B0B7C4"/>
<path d="M108.207 97.8426L76.9405 98.0649L92.4255 80.2932L108.207 97.8426Z" fill="#CED6E2"/>
<path d="M79.2623 80.3213C80.9772 78.8464 81.1704 76.259 79.6938 74.5422C78.2172 72.8253 75.63 72.6292 73.9151 74.1041C72.2002 75.579 72.0071 78.1664 73.4836 79.8833C74.9602 81.6001 77.5474 81.7962 79.2623 80.3213Z" fill="#B0B7C4"/>
<path d="M103.693 125.377C103.383 126.695 102.917 128.09 102.375 129.253C100.902 132.121 98.5763 134.369 95.7081 135.842C92.7623 137.315 89.2739 137.935 85.7855 137.16C77.5684 135.454 72.297 127.392 74.0025 119.175C75.7079 110.958 83.6925 105.609 91.9096 107.392C94.8554 108.012 97.4135 109.485 99.5841 111.501C103.228 115.144 104.778 120.416 103.693 125.377Z" fill="url(#paint1_linear_30_1063)"/>
<path d="M93.6924 120.958H90.204V117.47C90.204 116.772 89.6614 116.152 88.8862 116.152C88.1885 116.152 87.5683 116.694 87.5683 117.47V120.958H84.0799C83.3822 120.958 82.7621 121.501 82.7621 122.276C82.7621 123.051 83.3047 123.594 84.0799 123.594H87.5683V127.082C87.5683 127.78 88.111 128.4 88.8862 128.4C89.5839 128.4 90.204 127.857 90.204 127.082V123.594H93.6924C94.3901 123.594 95.0103 123.051 95.0103 122.276C95.0103 121.501 94.3901 120.958 93.6924 120.958Z" fill="white"/>
<defs>
<filter id="filter0_d_30_1063" x="25.4838" y="37.8699" width="126.299" height="123.338" filterUnits="userSpaceOnUse" color-interpolation-filters="sRGB">
<feFlood flood-opacity="0" result="BackgroundImageFix"/>
<feColorMatrix in="SourceAlpha" type="matrix" values="0 0 0 0 0 0 0 0 0 0 0 0 0 0 0 0 0 0 127 0" result="hardAlpha"/>
<feOffset dy="11"/>
<feGaussianBlur stdDeviation="11"/>
<feColorMatrix type="matrix" values="0 0 0 0 0.397708 0 0 0 0 0.47749 0 0 0 0 0.575 0 0 0 0.27 0"/>
<feBlend mode="normal" in2="BackgroundImageFix" result="effect1_dropShadow_30_1063"/>
<feBlend mode="normal" in="SourceGraphic" in2="effect1_dropShadow_30_1063" result="shape"/>
</filter>
<linearGradient id="paint0_linear_30_1063" x1="52.0197" y1="46.0213" x2="124.33" y2="130.098" gradientUnits="userSpaceOnUse">
<stop stop-color="#FDFEFF"/>
<stop offset="0.9964" stop-color="#ECF0F5"/>
</linearGradient>
<linearGradient id="paint1_linear_30_1063" x1="73.6681" y1="122.276" x2="104.038" y2="122.276" gradientUnits="userSpaceOnUse">
<stop stop-color="#B0BACC"/>
<stop offset="1" stop-color="#969EAE"/>
</linearGradient>
</defs>
</svg>
