<svg width="34" height="35" viewBox="0 0 34 35" fill="none" xmlns="http://www.w3.org/2000/svg">
<path d="M14.4915 4.56597C14.8165 4.22891 15.2062 3.96083 15.6371 3.77772C16.0681 3.59462 16.5316 3.50024 16.9998 3.50024C17.4681 3.50024 17.9315 3.59462 18.3625 3.77772C18.7934 3.96083 19.1831 4.22891 19.5081 4.56597L19.8748 4.94652H23.479C25.2658 4.94652 26.722 6.3868 26.722 8.17291V11.4861H25.3331V8.17291C25.332 7.93051 25.2832 7.6907 25.1895 7.46717C25.0957 7.24365 24.9588 7.04077 24.7866 6.87015C24.6144 6.69952 24.4103 6.56447 24.186 6.47272C23.9616 6.38097 23.7214 6.33432 23.479 6.33541H19.579C19.4856 6.33532 19.3932 6.3164 19.3073 6.27977C19.2213 6.24314 19.1437 6.18955 19.079 6.12222L18.5074 5.52847C18.312 5.32605 18.0778 5.16506 17.8187 5.05511C17.5597 4.94516 17.2812 4.8885 16.9998 4.8885C16.7184 4.8885 16.4399 4.94516 16.1809 5.05511C15.9219 5.16506 15.6876 5.32605 15.4922 5.52847L14.9206 6.12222C14.8559 6.18955 14.7783 6.24314 14.6924 6.27977C14.6065 6.3164 14.514 6.33532 14.4206 6.33541H10.7498C9.59495 6.33541 8.66648 7.26458 8.66648 8.40069V20.8403C9.52318 20.8311 10.38 20.845 11.2359 20.8819L11.604 20.8958C12.4956 20.9292 13.3269 20.9604 14.1401 20.9437C15.9644 20.9049 17.6415 20.6201 19.4248 19.5681C21.5901 18.2903 23.4234 18.6736 24.6908 19.4111C24.9255 19.5479 25.1401 19.6958 25.3331 19.8458V16.3472H26.722V23.6569C26.722 25.5694 25.163 27.1111 23.2498 27.1111H21.1665V28.5H17.6943V31.2778H16.3054V28.5H12.8331V27.1111H10.7498C8.83662 27.1111 7.27759 25.5694 7.27759 23.6569V8.4C7.27759 6.48888 8.83662 4.94652 10.7498 4.94652H14.1248L14.4915 4.56597V4.56597Z" fill="#C13538"/>
<path d="M18.3886 11.1389C18.3886 10.9547 18.3155 10.7781 18.1852 10.6479C18.055 10.5176 17.8784 10.4445 17.6942 10.4445C17.51 10.4445 17.3334 10.5176 17.2032 10.6479C17.0729 10.7781 16.9998 10.9547 16.9998 11.1389V16.6945C16.9998 16.8786 17.0729 17.0553 17.2032 17.1855C17.3334 17.3157 17.51 17.3889 17.6942 17.3889C17.8784 17.3889 18.055 17.3157 18.1852 17.1855C18.3155 17.0553 18.3886 16.8786 18.3886 16.6945V14.6111H20.472V16.6945C20.472 16.8786 20.5451 17.0553 20.6754 17.1855C20.8056 17.3157 20.9822 17.3889 21.1664 17.3889C21.3506 17.3889 21.5272 17.3157 21.6575 17.1855C21.7877 17.0553 21.8609 16.8786 21.8609 16.6945V11.1389C21.8609 10.9547 21.7877 10.7781 21.6575 10.6479C21.5272 10.5176 21.3506 10.4445 21.1664 10.4445C20.9822 10.4445 20.8056 10.5176 20.6754 10.6479C20.5451 10.7781 20.472 10.9547 20.472 11.1389V13.2222H18.3886V11.1389Z" fill="#C13538"/>
<path fill-rule="evenodd" clip-rule="evenodd" d="M10.7498 11.1389C10.7498 10.9547 10.8229 10.7781 10.9532 10.6479C11.0834 10.5176 11.26 10.4445 11.4442 10.4445H13.6143C14.7588 10.4445 15.6109 11.4202 15.6109 12.5278C15.6109 13.2889 15.2081 13.9882 14.5852 14.3507L15.5456 16.3993C15.6239 16.5661 15.6327 16.7571 15.5701 16.9304C15.5075 17.1037 15.3787 17.245 15.2119 17.3233C15.0451 17.4016 14.8541 17.4104 14.6808 17.3478C14.5075 17.2852 14.3662 17.1564 14.2879 16.9896L13.172 14.6111H12.1386V16.6945C12.1386 16.8786 12.0655 17.0553 11.9352 17.1855C11.805 17.3157 11.6284 17.3889 11.4442 17.3889C11.26 17.3889 11.0834 17.3157 10.9532 17.1855C10.8229 17.0553 10.7498 16.8786 10.7498 16.6945V11.1389ZM14.222 12.5278C14.222 12.1014 13.9081 11.8333 13.6143 11.8333H12.1386V13.2222H13.6143C13.9081 13.2222 14.222 12.9542 14.222 12.5278Z" fill="#C13538"/>
<path d="M23.2499 13.2222C23.0657 13.2222 22.8891 13.2953 22.7588 13.4256C22.6286 13.5558 22.5554 13.7324 22.5554 13.9166C22.5554 14.1008 22.6286 14.2774 22.7588 14.4077C22.8891 14.5379 23.0657 14.6111 23.2499 14.6111H26.0276C26.2118 14.6111 26.3885 14.5379 26.5187 14.4077C26.6489 14.2774 26.7221 14.1008 26.7221 13.9166C26.7221 13.7324 26.6489 13.5558 26.5187 13.4256C26.3885 13.2953 26.2118 13.2222 26.0276 13.2222H23.2499Z" fill="#C13538"/>
</svg>
