<svg width="34" height="35" viewBox="0 0 34 35" fill="none" xmlns="http://www.w3.org/2000/svg">
<path fill-rule="evenodd" clip-rule="evenodd" d="M16.9999 9.05554C15.8948 9.05554 14.835 9.49453 14.0536 10.2759C13.2722 11.0573 12.8333 12.1171 12.8333 13.2222C12.8333 14.3273 13.2722 15.3871 14.0536 16.1685C14.835 16.9499 15.8948 17.3889 16.9999 17.3889C18.105 17.3889 19.1648 16.9499 19.9462 16.1685C20.7276 15.3871 21.1666 14.3273 21.1666 13.2222C21.1666 12.1171 20.7276 11.0573 19.9462 10.2759C19.1648 9.49453 18.105 9.05554 16.9999 9.05554ZM14.2221 13.2222C14.2221 12.4855 14.5148 11.779 15.0357 11.258C15.5567 10.7371 16.2632 10.4444 16.9999 10.4444C17.7366 10.4444 18.4432 10.7371 18.9641 11.258C19.485 11.779 19.7777 12.4855 19.7777 13.2222C19.7777 13.9589 19.485 14.6655 18.9641 15.1864C18.4432 15.7073 17.7366 16 16.9999 16C16.2632 16 15.5567 15.7073 15.0357 15.1864C14.5148 14.6655 14.2221 13.9589 14.2221 13.2222Z" fill="#C13538"/>
<path fill-rule="evenodd" clip-rule="evenodd" d="M26.722 24.3541C26.722 25.877 25.479 27.1111 23.9443 27.1111H21.1665V28.5H17.6943V31.2777H16.3054V28.5H12.8331V27.1111H10.0554C8.52064 27.1111 7.27759 25.877 7.27759 24.3541V7.8944C7.27759 6.37218 8.52064 5.13746 10.0554 5.13746H14.222L15.0081 4.33538C15.2681 4.07098 15.5781 3.86099 15.92 3.71765C16.262 3.57431 16.629 3.50049 16.9998 3.50049C17.3706 3.50049 17.7376 3.57431 18.0796 3.71765C18.4215 3.86099 18.7315 4.07098 18.9915 4.33538L19.7776 5.13746H23.9443C25.479 5.13746 26.722 6.37149 26.722 7.8944V24.3541ZM18.7852 6.11038C18.9146 6.24236 19.069 6.34719 19.2394 6.41874C19.4098 6.49029 19.5928 6.52711 19.7776 6.52704H23.9443C24.722 6.52704 25.3331 7.14926 25.3331 7.8951V19.8465C25.1288 19.6878 24.9142 19.5428 24.6908 19.4125C23.4234 18.675 21.5901 18.2916 19.4248 19.5694C17.6415 20.6215 15.9644 20.9062 14.1401 20.9444C13.3269 20.9618 12.4956 20.9305 11.6047 20.8965L11.2366 20.8826C10.3804 20.8459 9.5234 20.8322 8.66648 20.8416V7.89371C8.66648 7.14857 9.27759 6.52565 10.0554 6.52565H14.222C14.4068 6.52572 14.5898 6.4889 14.7602 6.41735C14.9306 6.34581 15.085 6.24097 15.2144 6.10899L16.0005 5.3069C16.1311 5.1745 16.2867 5.06936 16.4582 4.9976C16.6298 4.92584 16.8139 4.88889 16.9998 4.88889C17.1858 4.88889 17.3699 4.92584 17.5414 4.9976C17.713 5.06936 17.8685 5.1745 17.9991 5.3069L18.7852 6.10968V6.11038Z" fill="#C13538"/>
</svg>
